<!-- <svg id="logo-16" width="109" height="43" viewBox="0 0 109 43" fill="none" xmlns="http://www.w3.org/2000/svg"> <path d="M64.9315 11.4284C62.1883 8.6852 58.9316 6.5091 55.3475 5.0245C51.7633 3.5399 47.9219 2.7758 44.0424 2.7758C40.1629 2.7758 36.3215 3.5399 32.7373 5.0245C29.1532 6.5091 25.8965 8.6852 23.1533 11.4284L44.0424 32.3174L64.9315 11.4284Z" class="ccompli1" fill="#FFD200"></path> <path d="M44.0686 32.3475C46.8118 35.0907 50.0684 37.2667 53.6526 38.7513C57.2367 40.2359 61.0782 41 64.9577 41C68.837 41 72.679 40.2359 76.263 38.7513C79.847 37.2667 83.104 35.0907 85.847 32.3475L64.9577 11.4584L44.0686 32.3475Z" class="ccompli2" fill="#06E07F"></path> <path d="M44.017 32.3429C41.2738 35.0861 38.0171 37.2621 34.433 38.7467C30.8488 40.2313 27.0074 40.9954 23.1279 40.9954C19.2484 40.9954 15.407 40.2313 11.8228 38.7467C8.2387 37.2621 4.982 35.0861 2.2388 32.3429L23.1279 11.4538L44.017 32.3429Z" class="ccustom" fill="#E3073C"></path> <path d="M64.9831 11.433C67.726 8.6898 70.983 6.5138 74.567 5.0292C78.151 3.5446 81.993 2.7805 85.872 2.7805C89.752 2.7805 93.593 3.5446 97.177 5.0292C100.761 6.5138 104.018 8.6898 106.761 11.433L85.872 32.3221L64.9831 11.433Z" class="ccustom" fill="#1F84EF"></path> </svg> -->
<svg xmlns="http://www.w3.org/2000/svg" viewBox="0 0 135.56 113.04" id="chinese-food"><g data-name="Layer 2"><g><path fill="none" stroke="#f7941d" stroke-linecap="round" stroke-linejoin="round" stroke-width="8" d="M104.82 30.79A10.73 10.73 0 0 1 120 29.67a11.05 11.05 0 0 1 1.12 15.4M62.13 23.46a10.63 10.63 0 0 1 21.21 1.08M44.82 45.07c1.59-4.26 0-10.34-4.26-14.76-5.43-5.63-27.33-13-27.33-13s6.6 22.15 12 27.78"></path><path fill="none" stroke="#f7941d" stroke-linecap="round" stroke-linejoin="round" stroke-width="8" d="M44.06 34.2c2.25 7.5 8.63 12.21 14.25 10.53s8.36-9.13 6.12-16.63S46.11 4 46.11 4s-4.3 22.71-2.05 30.2zM53.85 29.84l4.46 14.89"></path><path fill="none" stroke="#ed1c24" stroke-linecap="round" stroke-linejoin="round" stroke-width="8" d="m81.59 37.75 4.45 4.44M96.24 37.75l-4.45 4.44M67.78 45.07a21.26 21.26 0 1 1 42.52 0"></path><path fill="none" stroke="#f7941d" stroke-linecap="round" stroke-linejoin="round" stroke-width="8" d="M25.26 109.04h85.04"></path><path fill="none" stroke="#ed1c24" stroke-linecap="round" stroke-linejoin="round" stroke-width="8" d="M47.81 45.07 4 23.88"></path><path fill="none" stroke="#f7941d" stroke-linecap="round" stroke-linejoin="round" stroke-width="8" d="M21.65 45.14h109.91A63.78 63.78 0 1 1 4 45.14"></path></g></g></svg>