<!-- <svg xmlns="http://www.w3.org/2000/svg" fill="none" viewBox="0 0 283 64"><path fill="black" d="M141 16c-11 0-19 7-19 18s9 18 20 18c7 0 13-3 16-7l-7-5c-2 3-6 4-9 4-5 0-9-3-10-7h28v-3c0-11-8-18-19-18zm-9 15c1-4 4-7 9-7s8 3 9 7h-18zm117-15c-11 0-19 7-19 18s9 18 20 18c6 0 12-3 16-7l-8-5c-2 3-5 4-8 4-5 0-9-3-11-7h28l1-3c0-11-8-18-19-18zm-10 15c2-4 5-7 10-7s8 3 9 7h-19zm-39 3c0 6 4 10 10 10 4 0 7-2 9-5l8 5c-3 5-9 8-17 8-11 0-19-7-19-18s8-18 19-18c8 0 14 3 17 8l-8 5c-2-3-5-5-9-5-6 0-10 4-10 10zm83-29v46h-9V5h9zM37 0l37 64H0L37 0zm92 5-27 48L74 5h10l18 30 17-30h10zm59 12v10l-3-1c-6 0-10 4-10 10v15h-9V17h9v9c0-5 6-9 13-9z"/></svg> -->
<svg xmlns="http://www.w3.org/2000/svg" viewBox="0 0 135.56 113.04" id="chinese-food"><g data-name="Layer 2"><g><path fill="none" stroke="#f7941d" stroke-linecap="round" stroke-linejoin="round" stroke-width="8" d="M104.82 30.79A10.73 10.73 0 0 1 120 29.67a11.05 11.05 0 0 1 1.12 15.4M62.13 23.46a10.63 10.63 0 0 1 21.21 1.08M44.82 45.07c1.59-4.26 0-10.34-4.26-14.76-5.43-5.63-27.33-13-27.33-13s6.6 22.15 12 27.78"></path><path fill="none" stroke="#f7941d" stroke-linecap="round" stroke-linejoin="round" stroke-width="8" d="M44.06 34.2c2.25 7.5 8.63 12.21 14.25 10.53s8.36-9.13 6.12-16.63S46.11 4 46.11 4s-4.3 22.71-2.05 30.2zM53.85 29.84l4.46 14.89"></path><path fill="none" stroke="#ed1c24" stroke-linecap="round" stroke-linejoin="round" stroke-width="8" d="m81.59 37.75 4.45 4.44M96.24 37.75l-4.45 4.44M67.78 45.07a21.26 21.26 0 1 1 42.52 0"></path><path fill="none" stroke="#f7941d" stroke-linecap="round" stroke-linejoin="round" stroke-width="8" d="M25.26 109.04h85.04"></path><path fill="none" stroke="#ed1c24" stroke-linecap="round" stroke-linejoin="round" stroke-width="8" d="M47.81 45.07 4 23.88"></path><path fill="none" stroke="#f7941d" stroke-linecap="round" stroke-linejoin="round" stroke-width="8" d="M21.65 45.14h109.91A63.78 63.78 0 1 1 4 45.14"></path></g></g></svg>